<svg xmlns="http://www.w3.org/2000/svg" version="1.1" xmlns:xlink="http://www.w3.org/1999/xlink" viewBox="0 0 700 700" style="overflow: hidden; display: block;" width="700" height="700"><defs><linearGradient id="two-3" x1="350" y1="-350" x2="350" y2="350" spreadMethod="pad" gradientUnits="userSpaceOnUse"><stop offset="0%" stop-color="hsl(37, 91%, 55%)" stop-opacity="1"></stop><stop offset="100%" stop-color="hsl(55, 94%, 54%)" stop-opacity="1"></stop></linearGradient></defs><g id="two-0" transform="matrix(1 0 0 1 0 0)" opacity="1"><path transform="matrix(1 0 0 1 350 350)" id="two-141" d="M 184.826818 33.541122 C 176.928363 80.995872 321.801561 69.401799 305.864491 114.792863 C 291.336438 156.170846 208.429456 77.186283 173.442514 103.627078 C 162.461848 111.925531 165.68356 130.80399 165.46912 144.566016 C 165.05739 170.989377 201.334343 210.61671 178.321747 223.608398 C 138.051518 246.342826 112.090468 110.712 71.512301 132.892124 C 28.021988 156.664034 137.215675 262.491886 91.543481 281.741864 C 59.690493 295.167304 46.171524 228.00638 26.990236 199.249929 C 14.561363 180.61665 16.059379 138.647064 -6.291765 140.097018 C -58.523465 143.48537 -14.120473 296.915881 -65.556007 287.21963 C -107.942295 279.229277 -26.875161 172.596839 -66.900254 156.520923 C -116.004406 136.79844 -134.33583 299.551126 -179.003322 271.178441 C -219.992006 245.142526 -108.977865 178.234852 -127.488929 133.342965 C -132.24121 121.818026 -154.025002 127.298336 -161.812071 117.56335 C -169.389759 108.090122 -173.214705 93.140599 -169.456975 81.606177 C -161.757521 57.972562 -104.732698 54.592425 -113.400662 31.296594 C -135.670001 -28.553993 -280.93327 85.970612 -306.878898 27.6196 C -315.976466 7.159416 -268.136575 -1.973387 -262.392699 -23.615771 C -257.936543 -40.406148 -284.616847 -62.652078 -272.653169 -75.247494 C -234.316844 -115.608151 -140.933511 -7.795377 -105.733294 -50.918471 C -97.944822 -60.459974 -112.837928 -75.03787 -118.403649 -86.025286 C -141.229801 -131.086919 -236.063692 -174.278989 -203.743284 -213.098768 C -183.403831 -237.52832 -144.612051 -162.314471 -115.367238 -174.773894 C -98.889467 -181.794063 -112.750324 -218.232383 -96.444853 -225.64395 C -80.647385 -232.824607 -62.412918 -215.501963 -47.257726 -207.049626 C -32.956932 -199.073803 -18.486656 -189.306087 -7.939243 -176.78097 C 3.625107 -163.048234 -0.515011 -129.285281 17.427171 -128.652547 C 49.40703 -127.524771 45.514204 -188.847859 68.570362 -211.037875 C 86.310201 -228.111289 110.526824 -238.869178 133.418745 -247.933575 C 158.550058 -257.884692 196.707655 -288.682134 213.041945 -267.146151 C 249.224883 -219.440671 98.333572 -162.628556 124.503647 -108.775562 C 131.153503 -95.091435 154.852807 -102.40933 170.045461 -101.597434 C 208.313299 -99.552398 274.019407 -143.740617 286.031535 -107.349431 C 300.23408 -64.322298 163.535186 -75.727541 171.794074 -31.176029 C 180.329841 14.869068 309.302219 -46.820297 310.235002 -0.000001 C 311.088305 42.830813 191.860313 -8.716856 184.826818 33.541122 Z " fill="url(#two-3)" stroke="undefined" stroke-width="1" stroke-opacity="1" fill-opacity="1" visibility="visible" stroke-linecap="butt" stroke-linejoin="miter" stroke-miterlimit="4"></path></g></svg>